# AST/ASF file generated using VICON BodyLanguage
# -----------------------------------------------
:version 1.10
:name VICON
:units
  mass 1.0
  length 0.45
  angle deg
:documentation
   .ast/.asf automatically generated from VICON data using
   VICON BodyBuilder and BodyLanguage model FoxedUp or BRILLIANT.MOD
:root
   order TX TY TZ RX RY RZ
   axis XYZ
   position 0 0 0  
   orientation 0 0 0 
:bonedata
  begin
     id 1 
     name lhipjoint
     direction 0.714689 -0.624256 0.315473 
     length 2.45343 
     axis 0 0 0  XYZ
  end
  begin
     id 2 
     name lfemur
     direction 0.34202 -0.939693 0  
     length 6.59069  
     axis 0 0 20  XYZ
    dof rx ry rz
    limits (-160.0 20.0)
           (-70.0 70.0)
           (-60.0 70.0)
  end
  begin
     id 3 
     name ltibia
     direction 0.34202 -0.939693 0   
     length 6.73476   
     axis 0 0 20   XYZ
    dof rx
    limits (-10.0 170.0)
  end
  begin
     id 4 
     name lfoot
     direction 0.0718085 -0.197292 0.977711   
     length 1.52607   
     axis -90 7.62852e-016 20   XYZ
    dof rx rz
    limits (-45.0 90.0)
           (-70.0 20.0)
  end
  begin
     id 5 
     name ltoes
     direction 1.53553e-011 -4.22024e-011 1   
     length 0.777832   
     axis -90 7.62852e-016 20   XYZ
    dof rx
    limits (-90.0 20.0)
  end
  begin
     id 6 
     name rhipjoint
     direction -0.727419 -0.612432 0.309497   
     length 2.50079  
     axis 0 0 0  XYZ 
  end
  begin
     id 7 
     name rfemur
     direction -0.34202 -0.939693 0   
     length 6.51665   
     axis 0 0 -20   XYZ
    dof rx ry rz
    limits (-160.0 20.0)
           (-70.0 70.0)
           (-70.0 60.0)
  end
  begin
     id 8 
     name rtibia
     direction -0.34202 -0.939693 0   
     length 6.48919   
     axis 0 0 -20   XYZ
    dof rx
    limits (-10.0 170.0)
 end
 begin
     id 9 
     name rfoot
     direction -0.112205 -0.308282 0.944655   
     length 1.68717  
     axis -90 -7.62852e-016 -20   XYZ
    dof rx rz
    limits (-45.0 90.0)
           (-20.0 70.0)
  end
  begin
     id 10 
     name rtoes
     direction -1.53583e-011 -4.21993e-011 1   
     length 0.846859   
     axis -90 -7.62852e-016 -20   XYZ
    dof rx
    limits (-90.0 20.0)
  end
  begin
     id 11 
     name lowerback
     direction -0.00119603 0.996364 -0.0851956   
     length 1.67242   
     axis 0 0 0   XYZ
    dof rx ry rz
    limits (-20.0 45.0)
           (-30.0 30.0)
           (-30.0 30.0)
  end
  begin
     id 12 
     name upperback
     direction -0.00531001 0.998318 0.0577248   
     length 1.64819   
     axis 0 0 0   XYZ
    dof rx ry rz
    limits (-20.0 45.0)
           (-30.0 30.0)
           (-30.0 30.0)
  end
  begin
     id 13 
     name thorax
     direction -0.00653676 0.995132 0.0983291   
     length 1.67429   
     axis 0 0 0   XYZ
    dof rx ry rz
    limits (-20.0 45.0)
           (-30.0 30.0)
           (-30.0 30.0)
  end
  begin
     id 14 
     name lowerneck
     direction 0.0141424 0.999886 0.00525412   
     length 1.59623   
     axis 0 0 0   XYZ
    dof rx ry rz
    limits (-20.0 45.0)
           (-30.0 30.0)
           (-30.0 30.0)
  end
  begin
     id 15 
     name upperneck
     direction -0.0640064 0.987178 -0.146232   
     length 1.59576   
     axis 0 0 0   XYZ
    dof rx ry rz
    limits (-20.0 45.0)
           (-30.0 30.0)
           (-30.0 30.0)
  end
  begin
     id 16
     name head
     direction -0.0222942 0.998496 -0.0500859  
     length 1.60959  
     axis 0 0 0   XYZ
    dof rx ry rz
    limits (-20.0 45.0)
           (-30.0 30.0)
           (-30.0 30.0)
  end
  begin
     id 17 
     name lclavicle
     direction 0.908549 0.392612 0.142806  
     length 2.80649  
     axis 0 0 0   XYZ
    dof ry rz
    limits (-20.0 10.0)
           (0.0 20.0)
  end
  begin
     id 18 
     name lhumerus
     direction 1 -4.48968e-011 1.08832e-028   
     length 4.2884   
     axis -180 -30 -90   XYZ
    dof rx ry rz
    limits (-60.0 90.0)
           (-90.0 90.0)
           (-90.0 90.0)
  end
  begin
     id 19
     name lradius
     direction 1 -4.48952e-011 -3.02642e-028   
     length 3.06552   
     axis -180 -30 -90   XYZ
    dof rx
    limits (-10.0 170.0)
  end
  begin
     id 20
     name lwrist
     direction 1 -4.49014e-011 1.58672e-027   
     length 1.53276   
     axis -1.65735e-015 90 90   XYZ
    dof ry
    limits (-180.0 0.0)
 end
  begin
     id 21 
     name lhand
     direction 1 -4.48928e-011 3.17344e-027   
     length 0.753045   
     axis -2.02492e-015 90 90   XYZ
    dof rx rz
    limits (-90.0 90.0)
           (-45.0 45.0)
  end
  begin
     id 22 
     name lfingers
     direction 1 -4.48958e-011 6.34687e-027   
     length 0.607124   
     axis -4.04985e-015 90 90   XYZ
    dof rx
    limits (0.0 90.0)
  end
  begin
     id 23
     name lthumb
     direction 0.707107 -6.34905e-011 0.707107   
     length 0.871712   
     axis -90 45 2.85299e-015   XYZ
    dof rx rz
    limits (-45.0 45.0)
           (-45.0 45.0)
  end
  begin
     id 24 
     name rclavicle
     direction -0.885098 0.45949 0.0739604   
     length 2.9478  
     axis 0 0 0   XYZ 
    dof ry rz
    limits (-10.0 20.0)
           (-20.0 0.0)
  end
  begin
     id 25 
     name rhumerus
     direction -1 -4.4898e-011 -2.61739e-027  
     length 4.52172   
     axis -180 30 90   XYZ
    dof rx ry rz
    limits (-90.0 60.0)
           (-90.0 90.0)
           (-90.0 90.0)
  end
  begin
     id 26 
     name rradius
     direction -1 -4.48945e-011 9.02552e-028   
     length 2.8914   
     axis -180 30 90   XYZ
    dof rx
    limits (-10.0 170.0)
  end
  begin
     id 27 
     name rwrist
     direction -1 -4.49018e-011 1.58672e-027   
     length 1.4457   
     axis -1.65735e-015 -90 -90   XYZ
    dof ry
    limits (-180.0 0.0)
  end
  begin
     id 28
     name rhand
     direction -1 -4.48825e-011 3.17344e-027   
     length 0.680541   
     axis -2.02492e-015 -90 -90   XYZ
    dof rx rz
    limits (-90.0 90.0)
           (-45.0 45.0)
  end
  begin
     id 29
     name rfingers
     direction -1 -4.49067e-011 6.34687e-027   
     length 0.54867   
     axis -4.04985e-015 -90 -90   XYZ
    dof rx
    limits (0.0 90.0)
  end
  begin
     id 30
     name rthumb
     direction -0.707107 -6.34833e-011 0.707107   
     length 0.787783   
     axis -90 -45 -2.85299e-015   XYZ
    dof rx rz
    limits (-45.0 45.0)
           (-45.0 45.0)
  end
:hierarchy
  begin
    root lhipjoint rhipjoint lowerback
    lhipjoint lfemur
    lfemur ltibia
    ltibia lfoot
    lfoot ltoes
    rhipjoint rfemur
    rfemur rtibia
    rtibia rfoot
    rfoot rtoes
    lowerback upperback
    upperback thorax
    thorax lowerneck lclavicle rclavicle
    lowerneck upperneck
    upperneck head
    lclavicle lhumerus
    lhumerus lradius
    lradius lwrist
    lwrist lhand lthumb
    lhand lfingers
    rclavicle rhumerus
    rhumerus rradius
    rradius rwrist
    rwrist rhand rthumb
    rhand rfingers
  end

#!OML:ASF E:\emotionWalksFemale\Project 1\Capture day 1\Session 1\Female1.ASF
:FULLY-SPECIFIED
:DEGREES
18
root 9.69182 14.5673 -15.0474 1.00043 -3.83246 1.8567
lowerback 11.8818 0.846507 -0.204242
upperback -4.13565 1.05014 -0.510402
thorax -11.1735 0.492549 -0.662072
lowerneck -5.56912 1.49596 4.52539
upperneck 17.8775 2.94537 -8.21727
head 6.50986 1.0912 -3.17941
rclavicle 9.33667e-015 3.37934e-015
rhumerus 19.5852 14.5401 -47.6908
rradius 71.4049
rwrist 25.9982
rhand -31.7383 -51.3303
rfingers 7.12502
rthumb -4.99609 -81.2514
lclavicle 9.33667e-015 3.37934e-015
lhumerus 19.477 -13.186 44.4037
lradius 68.8731
lwrist -22.425
lhand -43.1296 -59.1336
lfingers 7.12502
lthumb -15.9832 -29.773
rfemur -23.8541 -2.11241 17.364
rtibia 54.8222
rfoot -28.3262 -16.1176
rtoes -17.8408
lfemur -25.3867 2.52304 -17.827
ltibia 53.875
lfoot -30.4047 -3.73221
ltoes -20.5341
19
root 9.69303 14.5674 -15.0477 0.975914 -3.83354 1.82822
lowerback 11.9212 0.854127 -0.200585
upperback -4.13569 1.06368 -0.483007
thorax -11.1975 0.499789 -0.638072
lowerneck -5.61263 1.49591 4.46737
upperneck 17.9306 2.94854 -8.18201
head 6.53358 1.08992 -3.15842
rclavicle -1.40827e-014 1.42131e-014
rhumerus 19.5712 14.5067 -47.6958
rradius 71.4056
rwrist 26.0535
rhand -31.7526 -51.3133
rfingers 7.12502
rthumb -5.00981 -81.234
lclavicle -1.40827e-014 1.42131e-014
lhumerus 19.4991 -13.1349 44.4984
lradius 68.8109
lwrist -22.519
lhand -43.0335 -59.4089
lfingers 7.12502
lthumb -15.8906 -30.0409
rfemur -23.8245 -2.10313 17.3898
rtibia 54.8296
rfoot -28.4061 -16.0569
rtoes -17.7422
lfemur -25.3736 2.55532 -17.8018
ltibia 53.894
lfoot -30.3667 -3.72089
ltoes -20.3905
20
root 9.69522 14.5647 -15.0492 0.974198 -3.82541 1.83035
lowerback 11.9575 0.856906 -0.208981
upperback -4.14655 1.06745 -0.467699
thorax -11.2319 0.502658 -0.618391
lowerneck -5.60657 1.50217 4.31725
upperneck 17.9478 2.95535 -8.05982
head 6.53528 1.09257 -3.09293
rclavicle 1.62569e-014 5.06901e-015
rhumerus 19.5492 14.4958 -47.6724
rradius 71.4267
rwrist 26.0367
rhand -31.747 -51.3698
rfingers 7.12502
rthumb -5.00444 -81.2908
lclavicle 1.62569e-014 5.06901e-015
lhumerus 19.5141 -13.0768 44.5732
lradius 68.7599
lwrist -22.6037
lhand -42.8744 -59.5385
lfingers 7.12502
lthumb -15.7374 -30.1583
rfemur -23.8381 -2.09919 17.3795
rtibia 54.8443
rfoot -28.365 -16.1191
rtoes -18.1822
lfemur -25.3922 2.56111 -17.8093
ltibia 53.9027
lfoot -30.3881 -3.63207
ltoes -20.387
21
root 9.69856 14.5643 -15.0524 0.993576 -3.76903 1.82455
lowerback 11.9622 0.840192 -0.188951
upperback -4.13948 1.05024 -0.449337
thorax -11.2268 0.493864 -0.606069
lowerneck -5.67494 1.50827 4.26389
upperneck 17.9684 2.96855 -8.05115
head 6.55414 1.0943 -3.08006
rclavicle 5.60945e-015 -7.55382e-015
rhumerus 19.5095 14.4695 -47.6286
rradius 71.4929
rwrist 25.9789
rhand -31.8322 -51.3321
rfingers 7.12502
rthumb -5.08672 -81.2511
lclavicle 5.60945e-015 -7.55382e-015
lhumerus 19.4747 -12.9907 44.6467
lradius 68.7941
lwrist -22.6451
lhand -42.6856 -59.4944
lfingers 7.12502
lthumb -15.5555 -30.1
rfemur -23.8737 -2.11862 17.3758
rtibia 54.8527
rfoot -28.2459 -16.247
rtoes -18.3936
lfemur -25.4365 2.49754 -17.8056
ltibia 53.9023
lfoot -30.3671 -3.66152
ltoes -20.3086
22
root 9.70098 14.5648 -15.0539 0.97757 -3.70864 1.79529
lowerback 11.9618 0.834884 -0.139829
upperback -4.09881 1.05136 -0.448758
thorax -11.1799 0.491172 -0.632801
lowerneck -5.82725 1.48691 4.31552
upperneck 17.9995 2.93449 -8.07157
head 6.58964 1.07598 -3.09788
rclavicle 4.63417e-015 -2.5842e-015
rhumerus 19.4659 14.3416 -47.6342
rradius 71.4995
rwrist 26.0426
rhand -32.0269 -51.2683
rfingers 7.12502
rthumb -5.27474 -81.1827
lclavicle 4.63417e-015 -2.5842e-015
lhumerus 19.4948 -12.942 44.6834
lradius 68.8378
lwrist -22.664
lhand -42.6854 -59.8239
lfingers 7.12502
lthumb -15.5553 -30.4295
rfemur -23.8471 -2.14667 17.3939
rtibia 54.8518
rfoot -28.2232 -16.2448
rtoes -18.0879
lfemur -25.4448 2.43265 -17.7806
ltibia 53.9052
lfoot -30.3417 -3.64751
ltoes -20.5084
23
root 9.70268 14.5644 -15.0543 0.971395 -3.69387 1.78508
lowerback 11.9162 0.842946 -0.109591
upperback -4.0595 1.06543 -0.467527
thorax -11.1074 0.495354 -0.67178
lowerneck -5.95926 1.49044 4.28864
upperneck 18.0544 2.92373 -7.96406
head 6.62836 1.07377 -3.05939
rclavicle 3.82039e-015 -9.83984e-015
rhumerus 19.4718 14.2314 -47.6553
rradius 71.4482
rwrist 26.093
rhand -32.192 -51.3133
rfingers 7.12502
rthumb -5.43409 -81.2237
lclavicle 3.82039e-015 -9.83984e-015
lhumerus 19.5745 -12.9379 44.6353
lradius 68.8504
lwrist -22.5935
lhand -42.8584 -60.4937
lfingers 7.12502
lthumb -15.722 -31.1124
rfemur -23.8376 -2.15612 17.3928
rtibia 54.8518
rfoot -28.3064 -16.1274
rtoes -17.9598
lfemur -25.4725 2.43655 -17.787
ltibia 53.921
lfoot -30.3381 -3.53537
ltoes -21.0821
24
root 9.70502 14.5632 -15.056 0.977401 -3.70616 1.79896
lowerback 11.8813 0.84242 -0.110116
upperback -4.0392 1.06441 -0.471253
thorax -11.0638 0.495004 -0.674344
lowerneck -6.02148 1.47855 4.2744
upperneck 18.1385 2.91971 -8.00217
head 6.66624 1.06532 -3.07064
rclavicle 6.85807e-015 5.36719e-015
rhumerus 19.5487 14.2311 -47.6351
rradius 71.3892
rwrist 26.061
rhand -32.2062 -51.3877
rfingers 7.12502
rthumb -5.44784 -81.2977
lclavicle 6.85807e-015 5.36719e-015
lhumerus 19.5944 -12.95 44.5328
lradius 68.8968
lwrist -22.4048
lhand -43.043 -60.9916
lfingers 7.12502
lthumb -15.8998 -31.6243
rfemur -23.8572 -2.13839 17.3679
rtibia 54.8546
rfoot -28.3626 -16.066
rtoes -18.0912
lfemur -25.493 2.45592 -17.8072
ltibia 53.9326
lfoot -30.2963 -3.67172
ltoes -20.6172
25
root 9.70764 14.5601 -15.0578 0.946269 -3.68208 1.80288
lowerback 11.9154 0.827621 -0.0749258
upperback -4.03338 1.04906 -0.481893
thorax -11.0769 0.484675 -0.703026
lowerneck -6.00268 1.42625 4.33405
upperneck 18.158 2.86747 -8.1469
head 6.66777 1.03282 -3.13234
rclavicle -4.83295e-015 6.4605e-015
rhumerus 19.5761 14.2274 -47.6618
rradius 71.3617
rwrist 26.0455
rhand -32.159 -51.3473
rfingers 7.12502
rthumb -5.40225 -81.2585
lclavicle -4.83295e-015 6.4605e-015
lhumerus 19.579 -12.9717 44.4767
lradius 68.9547
lwrist -22.2966
lhand -43.212 -61.944
lfingers 7.12502
lthumb -16.0625 -32.5897
rfemur -23.8284 -2.12974 17.3562
rtibia 54.8575
rfoot -28.2988 -16.189
rtoes -18.274
lfemur -25.4617 2.44976 -17.8086
ltibia 53.943
lfoot -30.2977 -3.95979
ltoes -19.8305
26
root 9.71019 14.5612 -15.0586 0.921964 -3.65067 1.79995
lowerback 11.9276 0.820282 -0.0303903
upperback -4.03451 1.04459 -0.499714
thorax -11.0843 0.478618 -0.746765
lowerneck -5.93439 1.42145 4.32408
upperneck 18.0891 2.85439 -8.11864
head 6.63231 1.03057 -3.12166
rclavicle 8.10669e-015 -3.47873e-015
rhumerus 19.5362 14.1738 -47.732
rradius 71.3643
rwrist 26.0454
rhand -32.1318 -51.1872
rfingers 7.12502
rthumb -5.37597 -81.099
lclavicle 8.10669e-015 -3.47873e-015
lhumerus 19.5426 -12.9679 44.5144
lradius 69.0506
lwrist -22.2773
lhand -43.2643 -63.446
lfingers 7.12502
lthumb -16.1129 -34.0959
rfemur -23.7852 -2.12673 17.3509
rtibia 54.8405
rfoot -28.3182 -16.2248
rtoes -18.0231
lfemur -25.4308 2.46287 -17.8161
ltibia 53.9461
lfoot -30.3488 -4.03406
ltoes -19.8469
27
root 9.71251 14.5644 -15.0596 0.925303 -3.65745 1.76304
lowerback 11.9255 0.81938 0.0257176
upperback -4.03362 1.05296 -0.496296
thorax -11.081 0.478849 -0.776443
lowerneck -5.89182 1.43304 4.3369
upperneck 18.0285 2.86646 -8.12117
head 6.60645 1.03887 -3.12302
rclavicle -1.33372e-014 6.55989e-015
rhumerus 19.518 14.1372 -47.7749
rradius 71.3532
rwrist 26.0684
rhand -32.1803 -51.1641
rfingers 7.12502
rthumb -5.42285 -81.0747
lclavicle -1.33372e-014 6.55989e-015
lhumerus 19.5165 -12.9439 44.5326
lradius 69.129
lwrist -22.1916
lhand -43.2129 -64.2632
lfingers 7.12502
lthumb -16.0634 -34.909
rfemur -23.7721 -2.1168 17.3803
rtibia 54.8055
rfoot -28.3759 -16.1645
rtoes -17.7432
lfemur -25.4359 2.50753 -17.7907
ltibia 53.9602
lfoot -30.404 -3.90704
ltoes -20.3081
28
root 9.7146 14.5658 -15.0607 0.94433 -3.6602 1.70692
lowerback 11.8981 0.809089 0.0838755
upperback -4.02264 1.05126 -0.472096
thorax -11.0517 0.475222 -0.781997
lowerneck -5.90198 1.44018 4.31408
upperneck 18.0084 2.87713 -8.11838
head 6.60232 1.04276 -3.11711
rclavicle -2.24254e-015 6.65929e-015
rhumerus 19.5424 14.1339 -47.7888
rradius 71.3327
rwrist 26.0919
rhand -32.2479 -51.2436
rfingers 7.12502
rthumb -5.48811 -81.1525
lclavicle -2.24254e-015 6.65929e-015
lhumerus 19.5278 -12.8702 44.5458
lradius 69.1732
lwrist -22.0661
lhand -43.0012 -64.2809
lfingers 7.12502
lthumb -15.8595 -34.9104
rfemur -23.7818 -2.1193 17.4324
rtibia 54.7702
rfoot -28.3006 -16.2079
rtoes -18.0002
lfemur -25.4857 2.56497 -17.7382
ltibia 53.988
lfoot -30.4508 -3.92568
ltoes -20.4295
29
root 9.71644 14.5657 -15.0612 0.9687 -3.64703 1.68707
lowerback 11.8835 0.794941 0.0867618
upperback -4.04159 1.03519 -0.448617
thorax -11.0648 0.468274 -0.754781
lowerneck -5.87122 1.47603 4.23991
upperneck 17.9898 2.92141 -8.03881
head 6.5922 1.06632 -3.07509
rclavicle -6.14369e-015 3.77691e-015
rhumerus 19.5352 14.14 -47.8396
rradius 71.333
rwrist 26.084
rhand -32.2281 -51.1738
rfingers 7.12502
rthumb -5.46898 -81.0832
lclavicle -6.14369e-015 3.77691e-015
lhumerus 19.5129 -12.806 44.5928
lradius 69.1993
lwrist -22.0541
lhand -42.6749 -63.1646
lfingers 7.12502
lthumb -15.5452 -33.7694
rfemur -23.8031 -2.12791 17.4482
rtibia 54.7524
rfoot -28.2955 -16.1795
rtoes -18.0019
lfemur -25.5461 2.61913 -17.7223
ltibia 54.0129
lfoot -30.4484 -3.98479
ltoes -20.4757
30
root 9.7176 14.565 -15.0613 1.00004 -3.62382 1.68164
lowerback 11.8778 0.79398 0.0918194
upperback -4.0968 1.03409 -0.454648
thorax -11.1232 0.46673 -0.764614
lowerneck -5.77292 1.47583 4.2898
upperneck 17.9922 2.92312 -8.07008
head 6.57655 1.0702 -3.09399
rclavicle 4.96962e-016 -1.59028e-015
rhumerus 19.4115 14.1346 -47.9142
rradius 71.3503
rwrist 26.0303
rhand -32.3424 -51.314
rfingers 7.12502
rthumb -5.57932 -81.2205
lclavicle 4.96962e-016 -1.59028e-015
lhumerus 19.5486 -12.8747 44.6414
lradius 69.0866
lwrist -22.1299
lhand -42.8433 -62.6432
lfingers 7.12502
lthumb -15.7074 -33.2607
rfemur -23.8354 -2.13906 17.4526
rtibia 54.7491
rfoot -28.3746 -16.0778
rtoes -17.4046
lfemur -25.5884 2.62607 -17.7222
ltibia 54.0341
lfoot -30.4453 -3.92681
ltoes -20.887
31
root 9.71851 14.5655 -15.0622 1.03891 -3.60717 1.66387
lowerback 11.8729 0.807399 0.119167
upperback -4.15914 1.0551 -0.469065
thorax -11.1893 0.473708 -0.800949
lowerneck -5.66732 1.43631 4.34576
upperneck 17.9859 2.87001 -8.10419
head 6.55312 1.0481 -3.11889
rclavicle 4.92613e-015 -6.75868e-015
rhumerus 19.2248 14.1562 -47.9398
rradius 71.3723
rwrist 25.9099
rhand -32.6025 -51.763
rfingers 7.12502
rthumb -5.83042 -81.6628
lclavicle 4.92613e-015 -6.75868e-015
lhumerus 19.5633 -12.974 44.7422
lradius 68.9706
lwrist -22.2717
lhand -43.4772 -64.3759
lfingers 7.12502
lthumb -16.3178 -35.0424
rfemur -23.878 -2.1337 17.4789
rtibia 54.7457
rfoot -28.3216 -16.1671
rtoes -17.1796
lfemur -25.6365 2.61298 -17.7065
ltibia 54.0395
lfoot -30.4383 -3.94538
ltoes -20.9382
32
root 9.72031 14.5674 -15.0645 1.03984 -3.60502 1.62803
lowerback 11.9483 0.815569 0.15622
upperback -4.21359 1.07356 -0.45573
thorax -11.2949 0.479631 -0.813574
lowerneck -5.57378 1.42453 4.35761
upperneck 17.9579 2.85684 -8.12561
head 6.52707 1.04338 -3.12879
rclavicle 7.26806e-015 1.59028e-015
rhumerus 19.099 14.1977 -47.935
rradius 71.3848
rwrist 25.7824
rhand -32.7423 -52.0472
rfingers 7.12502
rthumb -5.96539 -81.9432
lclavicle 7.26806e-015 1.59028e-015
lhumerus 19.4621 -12.9959 44.8898
lradius 69.0212
lwrist -22.4252
lhand -43.8477 -65.8404
lfingers 7.12502
lthumb -16.6746 -36.5366
rfemur -23.8782 -2.10805 17.5205
rtibia 54.7337
rfoot -28.2104 -16.2917
rtoes -17.3928
lfemur -25.6749 2.6381 -17.6776
ltibia 54.0422
lfoot -30.3659 -3.93398
ltoes -20.9621
